HIERARCHY
ROOT Hips
{
	OFFSET 0.00000 0.00000 0.00000
	CHANNELS 6 Xposition Yposition Zposition Zrotation Yrotation Xrotation 
	JOINT LHipJoint
	{
		OFFSET 0 0 0
		CHANNELS 3 Zrotation Yrotation Xrotation
		JOINT LeftHip
		{
			OFFSET 1.58895 -1.83665 0.71753
			CHANNELS 3 Zrotation Yrotation Xrotation
			JOINT LeftKnee
			{
				OFFSET 2.50528 -6.88321 0.00000
				CHANNELS 3 Zrotation Yrotation Xrotation
				JOINT LeftAnkle
				{
					OFFSET 2.63244 -7.23257 0.00000
					CHANNELS 3 Zrotation Yrotation Xrotation
					JOINT LeftToe
					{
						OFFSET 0.23691 -0.65090 1.72750
						CHANNELS 3 Zrotation Yrotation Xrotation
						End Site
						{
							OFFSET 0.00000 -0.00000 0.92561
						}
					}
				}
			}
		}
	}
	JOINT RHipJoint
	{
		OFFSET 0 0 0
		CHANNELS 3 Zrotation Yrotation Xrotation
		JOINT RightHip
		{
			OFFSET -1.51435 -1.83665 0.71753
			CHANNELS 3 Zrotation Yrotation Xrotation
			JOINT RightKnee
			{
				OFFSET -2.54551 -6.99375 0.00000
				CHANNELS 3 Zrotation Yrotation Xrotation
				JOINT RightAnkle
				{
					OFFSET -2.66027 -7.30903 0.00000
					CHANNELS 3 Zrotation Yrotation Xrotation
					JOINT RightToe
					{
						OFFSET -0.22981 -0.63138 2.03959
						CHANNELS 3 Zrotation Yrotation Xrotation
						End Site
						{
							OFFSET -0.00000 -0.00000 1.07060
						}
					}
				}
			}
		}
	}
	JOINT lowerback
	{
		OFFSET 0 0 0
		CHANNELS 3 Zrotation Yrotation Xrotation
		JOINT Chest
		{
			OFFSET -0.02651 1.86275 -0.11152
			CHANNELS 3 Zrotation Yrotation Xrotation
			JOINT Chest2
			{
				OFFSET 0.01019 1.86224 0.04087
				CHANNELS 3 Zrotation Yrotation Xrotation
				JOINT lowerneck
				{
					OFFSET 0 0 0
					CHANNELS 3 Zrotation Yrotation Xrotation
					JOINT Neck
					{
						OFFSET -0.01926 1.80512 0.08867
						CHANNELS 3 Zrotation Yrotation Xrotation
						JOINT Head
						{
							OFFSET 0.05516 1.76451 -0.38475
							CHANNELS 3 Zrotation Yrotation Xrotation
							End Site
							{
								OFFSET 0.01592 1.82587 -0.14001
							}
						}
					}
				}
				JOINT LeftCollar
				{
					OFFSET 0 0 0
					CHANNELS 3 Zrotation Yrotation Xrotation
					JOINT LeftShoulder
					{
						OFFSET 3.47116 1.51376 0.14491
CHANNELS 3 Zrotation Xrotation Yrotation
						JOINT LeftElbow
						{
OFFSET 0 -4.780950 0.000000
CHANNELS 3 Zrotation Xrotation Yrotation
							JOINT LeftWrist
							{
OFFSET 0 -3.586150 -0.000000
CHANNELS 3 Zrotation Xrotation Yrotation
								JOINT lhand
								{
									OFFSET 0 0 0
CHANNELS 3 Zrotation Xrotation Yrotation
									JOINT LFingers
									{
OFFSET 0 -0.659810 0.000000
CHANNELS 3 Zrotation Xrotation Yrotation
										End Site
										{
OFFSET 0 -0.531960 0.000000
										}
									}
								}
								JOINT LThumb
								{
OFFSET 0 0.000000 0.000000
CHANNELS 3 Zrotation Xrotation Yrotation
									End Site
									{
OFFSET 0 -0.540080 0.540080
									}
								}
							}
						}
					}
				}
				JOINT RightCollar
				{
					OFFSET 0 0 0
					CHANNELS 3 Zrotation Yrotation Xrotation
					JOINT RightShoulder
					{
						OFFSET -3.31725 1.61216 0.35156
CHANNELS 3 Zrotation Xrotation Yrotation
						JOINT RightElbow
						{
OFFSET 0 -4.489130 0.000000
CHANNELS 3 Zrotation Xrotation Yrotation
							JOINT RightWrist
							{
OFFSET 0 -3.705100 0.000000
CHANNELS 3 Zrotation Xrotation Yrotation
								JOINT rhand
								{
									OFFSET 0 0 0
CHANNELS 3 Zrotation Xrotation Yrotation
									JOINT RFingers
									{
OFFSET 0 -0.449140 0.000000
CHANNELS 3 Zrotation Xrotation Yrotation
										End Site
										{
OFFSET 0 -0.362110 0.000000
										}
									}
								}
								JOINT RThumb
								{
OFFSET 0 0.000000 0.000000
CHANNELS 3 Zrotation Xrotation Yrotation
									End Site
									{
OFFSET 0 -0.367630 0.367630
									}
								}
							}
						}
					}
				}
			}
		}
	}
}
MOTION
Frames: 9
Frame Time: 0.008333333333333333
-0.536357 18.662741 5.338879 -0.876863 2.505965 -2.625861 0.000000 0.000000 0.000000 -13.737496 -5.501292 -1.778956 1.462296 7.642591 21.633753 1.168503 1.457058 -20.997674 8.585269 -16.533311 -54.644666 0.000000 0.000000 0.000000 0.000000 0.000000 0.000000 0.000000 0.000000 0.000000 0.000000 0.000000 0.000000 0.000000 0.000000 0.000000 1.692729 -2.103700 12.027813 1.309883 -2.534445 3.886518 0.765767 -1.259710 -2.682950 -4.548117 -4.806722 -9.291959 2.467020 -7.351776 41.255933 0.703874 -3.459740 16.769773 0.000000 0.000000 0.000000 13.020208 -5.202576 -95.936044 89.516784 -59.999080 59.581491 -19.133952 -39.580745 -4.001706 0.000000 0.000000 0.000000 -7.125000 0.000000 0.000000 -35.149980 31.975280 -13.582554 0.000000 0.000000 0.000000 -39.790944 21.965018 80.389100 -121.900389 -55.781881 -87.235318 24.888089 -48.635710 53.915609 0.000000 0.000000 0.000000 7.125000 0.000000 0.000000 88.448442 63.418045 -58.256843
-0.533304 18.661607 5.334606 -0.821830 2.565692 -2.729468 0.000000 0.000000 0.000000 -13.830475 -5.505094 -1.659181 1.455699 7.626069 21.583906 1.161980 1.480988 -20.951162 8.588891 -16.535720 -54.657039 0.000000 0.000000 0.000000 0.000000 0.000000 0.000000 0.000000 0.000000 0.000000 0.000000 0.000000 0.000000 0.000000 0.000000 0.000000 1.686364 -2.133583 12.206021 1.286889 -2.570240 3.903841 0.757331 -1.277283 -2.762625 -4.562186 -4.798058 -9.292856 2.445735 -7.326563 41.271670 0.701114 -3.454203 16.776864 0.000000 0.000000 0.000000 12.997731 -5.224963 -95.967161 89.410125 -59.998702 59.489140 -19.062056 -39.431823 -3.748894 0.000000 0.000000 0.000000 -7.125000 0.000000 0.000000 -35.012190 31.763053 -13.732423 0.000000 0.000000 0.000000 -40.080303 22.196182 80.297472 -122.205386 -55.693019 -87.487402 24.856657 -48.704103 52.922474 0.000000 0.000000 0.000000 7.125000 0.000000 0.000000 86.612957 63.187575 -55.922880
-0.528809 18.660400 5.329449 -0.827682 2.687736 -2.853890 0.000000 0.000000 0.000000 -13.871040 -5.567403 -1.528719 1.452888 7.618970 21.562576 1.158860 1.480571 -20.923607 8.597511 -16.541607 -54.687522 0.000000 0.000000 0.000000 0.000000 0.000000 0.000000 0.000000 0.000000 0.000000 0.000000 0.000000 0.000000 0.000000 0.000000 0.000000 1.773006 -2.210123 12.416295 1.276105 -2.655216 3.921877 0.718152 -1.319094 -2.862466 -4.606308 -4.779719 -9.312330 2.434752 -7.282599 41.287656 0.710725 -3.444065 16.790160 0.000000 0.000000 0.000000 12.951877 -5.232715 -95.929550 89.313188 -59.998235 59.405211 -18.894316 -39.439038 -3.715539 0.000000 0.000000 0.000000 -7.125000 0.000000 0.000000 -34.892613 31.751321 -13.676776 0.000000 0.000000 0.000000 -40.333165 22.384920 80.204982 -122.433584 -55.625714 -87.675809 25.171194 -49.009839 52.006113 0.000000 0.000000 0.000000 7.125000 0.000000 0.000000 85.152156 62.848296 -53.854252
-0.528410 18.661038 5.327918 -0.823915 2.765983 -2.853140 0.000000 0.000000 0.000000 -13.884140 -5.618709 -1.542299 1.455131 7.624654 21.579697 1.158352 1.451420 -20.906763 8.617460 -16.555095 -54.757478 0.000000 0.000000 0.000000 0.000000 0.000000 0.000000 0.000000 0.000000 0.000000 0.000000 0.000000 0.000000 0.000000 0.000000 0.000000 1.815642 -2.264315 12.444231 1.253025 -2.721404 3.920072 0.681255 -1.351815 -2.882729 -4.619995 -4.766073 -9.310623 2.412741 -7.249043 41.283541 0.708922 -3.435802 16.784957 0.000000 0.000000 0.000000 12.960912 -5.190218 -95.852107 89.303630 -59.998191 59.396969 -18.747679 -39.612104 -3.819235 0.000000 0.000000 0.000000 -7.125000 0.000000 0.000000 -34.835619 31.856316 -13.532833 0.000000 0.000000 0.000000 -40.458209 22.528773 80.094217 -122.548884 -55.591524 -87.770955 25.929536 -49.736918 51.404865 0.000000 0.000000 0.000000 7.125000 0.000000 0.000000 84.557761 62.448087 -52.618746
-0.528138 18.662327 5.325356 -0.857302 2.811133 -2.845560 0.000000 0.000000 0.000000 -13.854499 -5.671012 -1.565862 1.457538 7.630644 21.597715 1.153994 1.495330 -20.886858 8.650207 -16.577247 -54.872320 0.000000 0.000000 0.000000 0.000000 0.000000 0.000000 0.000000 0.000000 0.000000 0.000000 0.000000 0.000000 0.000000 0.000000 0.000000 1.901172 -2.304764 12.481478 1.227612 -2.763775 3.906417 0.615280 -1.372720 -2.922545 -4.579832 -4.764620 -9.293959 2.370046 -7.240838 41.274219 0.684569 -3.432759 16.770131 0.000000 0.000000 0.000000 13.011856 -5.117224 -95.823753 89.332315 -59.998300 59.421777 -18.421572 -39.872724 -4.009078 0.000000 0.000000 0.000000 -7.125000 0.000000 0.000000 -34.693119 32.054040 -13.244504 0.000000 0.000000 0.000000 -40.430062 22.587625 79.994294 -122.473194 -55.614025 -87.708516 26.378378 -50.370288 51.121597 0.000000 0.000000 0.000000 7.125000 0.000000 0.000000 84.345303 62.230076 -52.060764
-0.528889 18.663488 5.324130 -0.858446 2.824426 -2.800767 0.000000 0.000000 0.000000 -13.841322 -5.680021 -1.635315 1.459418 7.635380 21.612054 1.148577 1.526050 -20.852021 8.677754 -16.595855 -54.968981 0.000000 0.000000 0.000000 0.000000 0.000000 0.000000 0.000000 0.000000 0.000000 0.000000 0.000000 0.000000 0.000000 0.000000 0.000000 1.915736 -2.330170 12.470322 1.218141 -2.795647 3.874145 0.602379 -1.388681 -2.951453 -4.546410 -4.771557 -9.265101 2.306327 -7.236415 41.265812 0.651775 -3.435307 16.752038 0.000000 0.000000 0.000000 13.024543 -5.010528 -95.807563 89.285491 -59.998085 59.381238 -17.906299 -40.006464 -4.199301 0.000000 0.000000 0.000000 -7.125000 0.000000 0.000000 -34.425767 32.270297 -12.872730 0.000000 0.000000 0.000000 -40.368719 22.550992 79.962788 -122.256246 -55.678054 -87.529406 26.388083 -50.649831 51.141418 0.000000 0.000000 0.000000 7.125000 0.000000 0.000000 84.386154 62.233008 -52.108291
-0.531601 18.664816 5.326839 -0.817813 2.811727 -2.670629 0.000000 0.000000 0.000000 -13.850965 -5.672653 -1.781412 1.461170 7.639732 21.625195 1.147469 1.495460 -20.829889 8.689017 -16.603440 -55.008460 0.000000 0.000000 0.000000 0.000000 0.000000 0.000000 0.000000 0.000000 0.000000 0.000000 0.000000 0.000000 0.000000 0.000000 0.000000 1.858801 -2.329883 12.308849 1.213568 -2.806917 3.835715 0.625151 -1.394485 -2.901454 -4.551403 -4.788243 -9.219796 2.262946 -7.244388 41.243086 0.633389 -3.446457 16.726109 0.000000 0.000000 0.000000 13.020384 -4.935417 -95.829170 89.145910 -59.997238 59.260323 -17.386099 -39.954249 -4.170463 0.000000 0.000000 0.000000 -7.125000 0.000000 0.000000 -34.073670 32.295592 -12.659140 0.000000 0.000000 0.000000 -40.285433 22.440102 79.972088 -121.979351 -55.758996 -87.300623 26.144826 -50.459515 51.403786 0.000000 0.000000 0.000000 7.125000 0.000000 0.000000 84.687980 62.382748 -52.656270
-0.530926 18.665195 5.326030 -0.829177 2.818680 -2.608712 0.000000 0.000000 0.000000 -13.842255 -5.773088 -1.830627 1.463939 7.646550 21.645651 1.153457 1.508070 -20.887965 8.677987 -16.595994 -54.969612 0.000000 0.000000 0.000000 0.000000 0.000000 0.000000 0.000000 0.000000 0.000000 0.000000 0.000000 0.000000 0.000000 0.000000 0.000000 1.920029 -2.337401 12.268453 1.196197 -2.810728 3.808626 0.572437 -1.396463 -2.911544 -4.566091 -4.818343 -9.147275 2.271677 -7.291223 41.206683 0.634235 -3.468712 16.691634 0.000000 0.000000 0.000000 13.049006 -4.897218 -95.882541 88.986010 -59.996123 59.121865 -17.030941 -39.782807 -3.919301 0.000000 0.000000 0.000000 -7.125000 0.000000 0.000000 -33.750237 32.110422 -12.676853 0.000000 0.000000 0.000000 -40.183441 22.250135 80.071079 -121.713339 -55.835832 -87.080599 25.672549 -49.704466 51.618275 0.000000 0.000000 0.000000 7.125000 0.000000 0.000000 84.768910 62.587383 -53.054275
-0.529379 18.665575 5.324236 -0.853025 2.846067 -2.564741 0.000000 0.000000 0.000000 -13.826279 -5.894455 -1.883616 1.472404 7.667789 21.709411 1.161572 1.510861 -20.959754 8.663124 -16.585950 -54.917580 0.000000 0.000000 0.000000 0.000000 0.000000 0.000000 0.000000 0.000000 0.000000 0.000000 0.000000 0.000000 0.000000 0.000000 0.000000 1.981006 -2.356104 12.249359 1.199018 -2.828447 3.798781 0.543225 -1.405263 -2.914155 -4.639433 -4.836542 -9.119314 2.342364 -7.328097 41.175321 0.673205 -3.486725 16.677991 0.000000 0.000000 0.000000 13.028200 -4.860157 -95.835888 88.850089 -59.994982 59.004199 -16.982022 -39.666240 -3.793276 0.000000 0.000000 0.000000 -7.125000 0.000000 0.000000 -33.673783 32.005213 -12.742457 0.000000 0.000000 0.000000 -40.153534 22.030768 80.239144 -121.480059 -55.902414 -86.887477 25.407447 -48.959373 51.761880 0.000000 0.000000 0.000000 7.125000 0.000000 0.000000 84.858664 62.708596 -53.333385
